# xmcd CD database file
#
# Track frame offsets:
#	150
#	10933
#	27762
#	48530
#	68448
#	82561
#	96305
#	116085
#	131629
#	157070
#	172302
#	196622
#	215937
#	239966
#	279919
#	296508
#	314471
#	336486
#
# Disc length: 4728 seconds
#
# Revision: 0
# Processed by: cddbd v1.5.2PL0 Copyright (c) Steve Scherf et al.
# Submitted via: CDex 1.51
#
DISCID=0f127612
DTITLE=Lucinda Williams - (2009) Favorites
DYEAR=2009
DGENRE=Country
TTITLE0=I Just Wanted To See You So Bad
TTITLE1=Real Love
TTITLE2=Righteously
TTITLE3=Tears Of Joy
TTITLE4=Happy Woman Blues
TTITLE5=Honey Bee
TTITLE6=Well Well Well
TTITLE7=Can't Let Go
TTITLE8=If Wishes Were Horses
TTITLE9=Drop Down Daddy
TTITLE10=Jailhouse Tears
TTITLE11=Get Right With God
TTITLE12=Hot Blood
TTITLE13=Wrap My Head Around That
TTITLE14=I Asked For Water (He Gave Me Gasoline)
TTITLE15=Joy
TTITLE16=It's A Long Way To The Top
TTITLE17=Down The Big Road Blues
EXTD=YEAR: 2009
EXTT0=
EXTT1=
EXTT2=
EXTT3=
EXTT4=
EXTT5=
EXTT6=
EXTT7=
EXTT8=
EXTT9=
EXTT10=
EXTT11=
EXTT12=
EXTT13=
EXTT14=
EXTT15=
EXTT16=
EXTT17=
PLAYORDER=
